#Produced by polyHédronisme http://levskaya.github.com/polyhedronisme
group dwdI
#vertices
v 0.3513930882584088 0.1485113815613377 0.8999457860608818
v -0.00028983107523502985 0.000025603266830747143 0.9999296605217854
v -0.032874615064999856 0.38038047317844753 0.8999048214499527
v -0.3720715586060366 0.08660900957839097 0.8999672293882227
v -0.19745409313843326 -0.32681713447535055 0.9000361749006924
v 0.24967597792816773 -0.2885637517799544 0.9000271534443454
v 0.6927907788061539 0.28863031405330575 0.6259590306640298
v 0.8940265306306068 0.00003333234930766369 0.44714881064133
v 0.6473270688772331 -0.14844363226424642 0.7171206062151386
v 0.8192807553317872 -0.38032850487939723 0.3734084778332651
v 0.9710282462786906 -0.08657125194105757 0.0698314275301268
v 0.8928530193881556 0.3268675675037884 0.2259139060359533
v 0.3409654014501547 0.5699745890814268 0.7169803391911018
v 0.2759844520586833 0.8504310651020961 0.44698174529525037
v 0.614665662086009 0.6617366795654223 0.37321124759093594
v 0.38219706333044057 0.8967905625523905 0.06964752863895385
v -0.0351724896966318 0.9502998378487009 0.22580445133527433
v -0.06065617567207143 0.7483171885665855 0.6258762370588807
v -0.4368885196795379 0.500723507642782 0.7170128227754755
v -0.7236351156044343 0.5255644905330505 0.4470783234119886
v -0.4395742830841699 0.7893035561670508 0.37321341548682596
v -0.7348684391804136 0.6408075908764144 0.06973400609279795
v -0.9146943273439646 0.26045843405500846 0.22596157933796573
v -0.7305291814530892 0.17387800056229694 0.6260047595619379
v -0.6112913574203622 -0.2604703649908663 0.7171498972102299
v -0.7234645110952043 -0.5255715568081128 0.4472442995831406
v -0.8865260955017099 -0.17388742257554912 0.3733916794943482
v -0.8364923676944166 -0.5007190933075315 0.06990660475715182
v -0.5303346410084582 -0.7892988529860466 0.2260995127044304
v -0.3911451014600962 -0.6408181852064118 0.626124994165439
v 0.05877177583940285 -0.6616805294505353 0.7172047771894946
v 0.27629136565327533 -0.8503813480594663 0.4472831666281786
v -0.10855593000386199 -0.896756936023243 0.3734797428836599
v 0.21778628341041303 -0.9502755253484201 0.06995460686135758
v 0.5868132588744138 -0.7482764277831282 0.22609475078446464
v 0.48853141432322705 -0.5699128105261354 0.6261134202162704
v 0.9145384943252668 0.2604936653254717 -0.2261338791210464
v 0.7233742424560755 0.5255805506915286 -0.44734593726607474
v 0.7303919875306816 0.1738822402175919 -0.6261436058479058
v 0.4366248670630086 0.5007043040374607 -0.7172670335479526
v 0.4391999337746968 0.7893066726415866 -0.37358715935131315
v 0.7345647088642615 0.6408520000255817 -0.07004876093754156
v 0.8365633544609828 -0.5006984961445612 -0.06984875780831962
v 0.7235367829366589 -0.5255643781355198 -0.44717727354159464
v 0.530465201919276 -0.7892928893474369 -0.22597312899809743
v 0.3912353482739302 -0.6408235064266415 -0.6260288625391459
v 0.6112849519137934 -0.26047412321497226 -0.7171513583713703
v 0.8865073518260416 -0.17386888575812304 -0.3734225696873001
v 0.034724987861474946 0.9502822027914388 -0.22624756574350097
v -0.2763883553810337 0.8503712336445806 -0.4473790114067552
v 0.06029110357616188 0.7482727829117896 -0.6262289204064282
v -0.34125664649062143 0.5699029969050772 -0.7172587060008911
v -0.6149829776083973 0.6616670849022142 -0.37353121350322893
v -0.3826169876696973 0.8967538237275408 -0.07006803594422956
v -0.8930314661327965 0.32680650081720897 -0.22610761650589978
v -0.8940943205167207 -0.00002365450223704166 -0.44722865757642494
v -0.6929660292799409 0.28855902558355234 -0.6261338603944572
v -0.64736282333724 -0.14849560481852112 -0.7171527347253336
v -0.8192419410532596 -0.3803647320122165 -0.37337995668591906
v -0.971066880095388 -0.0866121951337104 -0.06988907503556185
v -0.5866910689492258 -0.7482927990765944 -0.22597825186972792
v -0.27615378875100416 -0.8503935635473621 -0.44714357349564726
v -0.4884565865190171 -0.5699406997397205 -0.6260349314440447
v -0.05868118955642219 -0.6616978712478958 -0.717103268550786
v 0.1087027882807031 -0.8967610055519245 -0.3733307243775821
v -0.21762635481166467 -0.950279778954073 -0.0697962327007735
v 0.37195045659836795 0.08658397738901627 -0.9000704913955726
v 0.00019345085206479235 -0.000017883044266333354 -0.999999981128482
v 0.19745671200815076 -0.32683979514974487 -0.9000148266175798
v -0.24968301186036726 -0.2886025514360377 -0.9000160042251539
v -0.35153350074680667 0.14844982883423746 -0.9000674182936519
v 0.03264910842317512 0.38032901587282486 -0.9001081779966362
#normal vector defs 
vn 0.20154633245465642 0.23268166887136899 -0.9514401278300763
vn -0.1591174060016612 0.2634620204562778 -0.9514564703045528
vn 0.2836608587855164 -0.11985282050200115 -0.9514051810930918
vn -0.2998589883597315 -0.06999092541949824 -0.9514125590188521
vn -0.026241816926270287 -0.30689657485740296 -0.9513810274465235
vn 0.29944736307250547 0.3457739459470349 -0.8892534256628649
vn -0.23639178104617523 0.3915028554934585 -0.8892943494671971
vn 0.4214692373897359 -0.17800921829646763 -0.8891998651234687
vn -0.4455033480722352 -0.10392450580803443 -0.8892280157243049
vn -0.03898283196864831 -0.45588588870429503 -0.8891841177686426
vn 0.18760333097110032 0.5773864488158256 -0.7946256218700714
vn -0.08561315096087446 0.599034281893896 -0.7961333540924
vn 0.5434255166283543 0.26651799672708265 -0.7960256687430306
vn -0.4912063080521363 0.3566724570316557 -0.794670448251847
vn 0.6072094153820788 -0.000030958283636458556 -0.7945418333309697
vn -0.5962191195076809 0.10358350846323079 -0.796111310249976
vn -0.4911337354560879 -0.35697323735099873 -0.7945802424627086
vn 0.42141847594063436 -0.43451088321550857 -0.7959941962747916
vn -0.2829150097377284 -0.5350874776363803 -0.796015382101274
vn 0.18762642698280246 -0.577516715092992 -0.794525498449148
vn -0.15519019653805702 0.7033755861716997 -0.6936705180963777
vn 0.6211549821467671 0.3649670454166787 -0.6935167942552434
vn -0.7169389143134346 0.06964885051666644 -0.6936480597282607
vn 0.5390502721146971 -0.47800936330251925 -0.6934925037289094
vn -0.2879484421378261 -0.660365209694157 -0.693544147474399
vn 0.3278247320506128 0.7222718179902062 -0.6089781326066366
vn -0.5856215517031182 0.5347959557400336 -0.6091310892615285
vn 0.788305878338296 -0.08859245375911136 -0.6088720878100978
vn -0.6896714023921874 -0.39171465962317314 -0.6090262573639128
vn 0.15931258732618592 -0.7770738151204939 -0.6089136107638888
vn 0.47604109577470727 0.6717043281559768 -0.5676250264656624
vn -0.49174084625974857 0.6601231421965612 -0.5678277707688177
vn -0.779813842869219 -0.2637082000688999 -0.5677573035073721
vn 0.7859801054704854 -0.24518892533151937 -0.5675541072879124
vn 0.009682849269560537 -0.8232330730256465 -0.5676209561906375
vn 0.03231729888437448 0.8929813450604689 -0.44893196540992003
vn 0.8593587666277559 0.24526757298775412 -0.4487163111150729
vn -0.8392733916486539 0.3065436829762673 -0.44905583672624827
vn 0.49873812279300983 -0.741528569872893 -0.44877128354560175
vn -0.5510099859256682 -0.7034636873344782 -0.44891740444314965
vn 0.19298295760413672 0.8807471173850653 -0.4324836335542165
vn -0.7780078125146079 0.4555316175378202 -0.4326601311533243
vn 0.8973566141582393 0.08868069905493664 -0.4323041066675038
vn -0.6737503087881214 -0.5991366643840276 -0.4325456956191939
vn 0.3615477072819375 -0.8260301302015133 -0.432385799209971
vn 0.6245596840137116 0.7415277856241894 -0.24507497679685458
vn -0.5122196735776955 0.8230525974269861 -0.24538832056283943
vn -0.941044338940535 -0.23284721918619222 -0.2453930004405769
vn 0.898247412592131 -0.36485092541374536 -0.24502119907525471
vn -0.06947599179971191 -0.9669822897411026 -0.24519041149788195
vn -0.18834686813625387 0.9669427248300683 -0.17189306024813145
vn 0.86142717961027 0.4780159329837206 -0.171592488304117
vn -0.9778097293219415 0.11956500833537323 -0.17202424836375166
vn 0.7207490379682758 -0.6716111333326586 -0.1716371458962965
vn -0.41599631010412463 -0.8929797308285419 -0.17185537614266755
vn 0.3034937592278124 0.934200753572094 -0.18751130668602994
vn -0.7947112411566631 0.5772129053541705 -0.1877746124262638
vn 0.9822964758310797 0.00013151544699339989 -0.18733290227167304
vn -0.7945837615829829 -0.5774152329202105 -0.18769202066240487
vn 0.3035396242006957 -0.9341935178309881 -0.18747311215922025
vn 0.5485178811774865 0.826008282166603 -0.1297630603089265
vn -0.6160906919719679 0.7768617200971272 -0.13006970098079967
vn 0.9551059847561199 -0.26638556604210034 -0.1296583513988689
vn -0.9292187405240525 -0.3458823110136898 -0.13006905545410555
vn 0.04168753512880391 -0.9906565236092373 -0.12985300013994702
vn -0.13487898352506975 0.9906417621652844 -0.020893990937684143
vn 0.9004308075562633 0.4345110381676938 -0.020603847068164403
vn -0.9838501882587162 0.1777508822069468 -0.02105779993116695
vn 0.691408753845396 -0.7221683935149974 -0.02065784388372504
vn -0.4731698341125412 -0.8807232603004533 -0.020900881599830414
vn 0.13479138346793515 0.9906555969425288 0.020803153348519045
vn -0.9005662734637581 0.43423154311239626 0.020575569635545146
vn 0.9837918454388911 0.1780747238661303 0.021047507404496298
vn -0.6913251957076987 -0.7222480590945023 0.02066917787277912
vn 0.47322468617786995 -0.8806933152753977 0.020920822667512058
vn 0.6159124539546673 0.7770162965150499 0.12999047662646654
vn -0.5486445770186359 0.8259327026670593 0.12970851465161737
vn 0.9293131246433544 -0.3456207732562422 0.1300899591027784
vn -0.955047376244054 -0.2665977852866577 0.12965388543964976
vn -0.041673462710700125 -0.9906549579060467 0.1298694609285366
vn -0.3035857972967073 0.9341858731354191 0.18743643752999806
vn 0.7945330197945033 0.5774799925617531 0.18770758814471353
vn -0.9822996852020797 -0.00012344328011545995 0.18731607836395686
vn 0.7946934461878971 -0.577248210411865 0.18774139171291834
vn -0.303519834391257 -0.9341982912157827 0.18748136659576475
vn 0.18824781613953023 0.9669799740758699 0.17179199473470153
vn -0.8615478981024967 0.4778055644405891 0.17157232254877258
vn 0.9777660083864022 0.11994398264005557 0.17200893544395987
vn -0.7206820992047587 -0.6716836431860886 0.17163448185631527
vn 0.41605478228269893 -0.8929459397836883 0.17188940270860686
vn 0.512058762273182 0.8231872826285923 0.24527234189327346
vn -0.624679593787903 0.7414395841648944 0.24503621801351896
vn 0.9411151651394913 -0.23252191001320574 0.2454298419269311
vn -0.898189947733371 -0.3650039267256816 0.24500398214224542
vn 0.069497071053613 -0.9669729204331399 0.24522138622879827
vn -0.19304082351119714 0.8807844116635181 0.4323818458592697
vn 0.7778385133588697 0.45590357563201317 0.4325727416997152
vn -0.8973816937537392 0.08853263041412357 0.43228239504706434
vn 0.6738614872811576 -0.5989516986582419 0.4326286613640301
vn -0.3615413287158723 -0.8260248650104761 0.4324011910422847
vn -0.03238922954319714 0.8930430716845763 0.44880397717241205
vn 0.8391574201515062 0.3069423883591397 0.44900021651782707
vn -0.8594107654724639 0.2451272573517232 0.4486933963111734
vn -0.49872624807879246 -0.7415348625558461 0.4487740824641427
vn 0.5511026020787065 -0.7033322242424659 0.44900969290676185
vn 0.49157804574893366 0.6603892078121779 0.5676593337054041
vn -0.476089036906822 0.6717276126680436 0.5675572599451313
vn 0.7798865482309307 -0.26334142021464 0.5678276748167359
vn -0.7859774976712375 -0.24524539183657257 0.5675333214335399
vn -0.009670972628825224 -0.8231849613142997 0.5676909297799175
vn -0.327868133785984 0.7223356827221725 0.6088790095856393
vn 0.5854752189108501 0.5351263753000662 0.6089815518548197
vn -0.788317264258143 -0.08864674512746987 0.6088494439932277
vn 0.689752678707384 -0.3914051901016001 0.6091331704787702
vn -0.15930839156736157 -0.7770304738508566 0.6089700149295806
vn 0.15511297963803264 0.7035702055702661 0.6934903960269563
vn -0.6211923520276014 0.3649918541173682 0.6934702648350414
vn 0.716891991106971 0.07010644191648029 0.6936504594451686
vn -0.539060374701929 -0.4779792946393981 0.6935053758423501
vn 0.2880056800296542 -0.6602256546977275 0.6936532369632638
vn 0.08555278990290094 0.5992696726827315 0.7959626747169506
vn -0.18762490907660284 0.5775531791045995 0.7944993510382288
vn 0.4911056451627347 0.3570802825764912 0.7945495057479977
vn -0.543448132145298 0.2666020477097303 0.7959820826028469
vn 0.5961908868529446 0.10402449698518457 0.7960749527905514
vn -0.6072330535714714 0.00002723668612654361 0.794523767994658
vn 0.4912025946620759 -0.3566623348193604 0.7946772866506547
vn -0.42143558016898625 -0.434433372597113 0.7960274471031307
vn 0.28296251851103743 -0.5348756838022596 0.7961408267354187
vn -0.18763076992110503 -0.5774112484930338 0.7946011227606774
vn 0.23634770608082936 0.39184702641759883 0.8891544689861349
vn -0.29946669068370474 0.3459617092677271 0.8891738845082569
vn 0.44551150548316243 -0.10351489204822004 0.8892717051646093
vn -0.42148739966958915 -0.17787398039967117 0.8892183190963542
vn 0.03900390425766241 -0.45569292529668337 0.8892820999475984
vn 0.15908662859274614 0.26381621287488005 0.9513634691469657
vn -0.2015558011614753 0.23292420732848057 0.9513787745470018
vn 0.2998848434717868 -0.06961275497926206 0.9514321547015843
vn -0.28368010166466934 -0.11965838314342522 0.9514239177480375
vn 0.02625274742497121 -0.30663456127258676 0.951465206450456
#face defs 
f 68//1 72//1 67//1 
f 71//2 72//2 68//2 
f 69//3 68//3 67//3 
f 70//4 71//4 68//4 
f 69//5 70//5 68//5 
f 67//6 72//6 40//6 
f 72//7 71//7 52//7 
f 69//8 67//8 47//8 
f 71//9 70//9 58//9 
f 70//10 69//10 64//10 
f 72//11 51//11 40//11 
f 72//12 52//12 51//12 
f 67//13 40//13 39//13 
f 71//14 57//14 52//14 
f 47//15 67//15 39//15 
f 71//16 58//16 57//16 
f 70//17 63//17 58//17 
f 69//18 47//18 46//18 
f 70//19 64//19 63//19 
f 64//20 69//20 46//20 
f 51//21 52//21 50//21 
f 39//22 40//22 38//22 
f 57//23 58//23 56//23 
f 46//24 47//24 44//24 
f 63//25 64//25 62//25 
f 51//26 41//26 40//26 
f 57//27 53//27 52//27 
f 48//28 47//28 39//28 
f 63//29 59//29 58//29 
f 65//30 64//30 46//30 
f 40//31 41//31 38//31 
f 52//32 53//32 50//32 
f 58//33 59//33 56//33 
f 47//34 48//34 44//34 
f 64//35 65//35 62//35 
f 51//36 50//36 49//36 
f 39//37 38//37 37//37 
f 57//38 56//38 55//38 
f 45//39 46//39 44//39 
f 63//40 62//40 61//40 
f 51//41 49//41 41//41 
f 57//42 55//42 53//42 
f 48//43 39//43 37//43 
f 63//44 61//44 59//44 
f 65//45 46//45 45//45 
f 41//46 42//46 38//46 
f 53//47 54//47 50//47 
f 59//48 60//48 56//48 
f 44//49 48//49 43//49 
f 65//50 66//50 62//50 
f 50//51 54//51 49//51 
f 38//52 42//52 37//52 
f 56//53 60//53 55//53 
f 45//54 44//54 43//54 
f 62//55 66//55 61//55 
f 41//56 49//56 16//56 
f 53//57 55//57 22//57 
f 48//58 37//58 11//58 
f 59//59 61//59 28//59 
f 65//60 45//60 34//60 
f 42//61 41//61 16//61 
f 54//62 53//62 22//62 
f 43//63 48//63 11//63 
f 60//64 59//64 28//64 
f 66//65 65//65 34//65 
f 49//66 54//66 17//66 
f 37//67 42//67 12//67 
f 55//68 60//68 23//68 
f 45//69 43//69 35//69 
f 61//70 66//70 29//70 
f 49//71 17//71 16//71 
f 55//72 23//72 22//72 
f 37//73 12//73 11//73 
f 61//74 29//74 28//74 
f 45//75 35//75 34//75 
f 42//76 16//76 15//76 
f 54//77 22//77 21//77 
f 43//78 11//78 10//78 
f 60//79 28//79 27//79 
f 66//80 34//80 33//80 
f 54//81 21//81 17//81 
f 42//82 15//82 12//82 
f 60//83 27//83 23//83 
f 35//84 43//84 10//84 
f 66//85 33//85 29//85 
f 16//86 17//86 14//86 
f 22//87 23//87 20//87 
f 11//88 12//88 8//88 
f 28//89 29//89 26//89 
f 34//90 35//90 32//90 
f 15//91 16//91 14//91 
f 21//92 22//92 20//92 
f 10//93 11//93 8//93 
f 27//94 28//94 26//94 
f 33//95 34//95 32//95 
f 21//96 18//96 17//96 
f 12//97 15//97 7//97 
f 27//98 24//98 23//98 
f 36//99 35//99 10//99 
f 33//100 30//100 29//100 
f 17//101 18//101 14//101 
f 8//102 12//102 7//102 
f 23//103 24//103 20//103 
f 29//104 30//104 26//104 
f 35//105 36//105 32//105 
f 15//106 14//106 13//106 
f 21//107 20//107 19//107 
f 9//108 10//108 8//108 
f 27//109 26//109 25//109 
f 33//110 32//110 31//110 
f 21//111 19//111 18//111 
f 15//112 13//112 7//112 
f 27//113 25//113 24//113 
f 36//114 10//114 9//114 
f 33//115 31//115 30//115 
f 14//116 18//116 13//116 
f 20//117 24//117 19//117 
f 9//118 8//118 7//118 
f 26//119 30//119 25//119 
f 32//120 36//120 31//120 
f 13//121 18//121 3//121 
f 18//122 19//122 3//122 
f 7//123 13//123 1//123 
f 19//124 24//124 4//124 
f 9//125 7//125 1//125 
f 24//126 25//126 4//126 
f 36//127 9//127 6//127 
f 25//128 30//128 5//128 
f 31//129 36//129 6//129 
f 30//130 31//130 5//130 
f 13//131 3//131 1//131 
f 19//132 4//132 3//132 
f 6//133 9//133 1//133 
f 25//134 5//134 4//134 
f 31//135 6//135 5//135 
f 3//136 2//136 1//136 
f 3//137 4//137 2//137 
f 2//138 6//138 1//138 
f 4//139 5//139 2//139 
f 5//140 6//140 2//140 
